<?xml version="1.0" encoding="utf-8"?>
<!-- Generator: Adobe Illustrator 26.0.2, SVG Export Plug-In . SVG Version: 6.00 Build 0)  -->
<svg version="1.1" id="Layer_1" xmlns="http://www.w3.org/2000/svg" xmlns:xlink="http://www.w3.org/1999/xlink" x="0px" y="0px"
	 viewBox="0 0 61.453 56.737" enable-background="new 0 0 61.453 56.737" xml:space="preserve">
<g>
	<g>
		<g>
			
				<linearGradient id="SVGID_1_" gradientUnits="userSpaceOnUse" x1="78.0488" y1="-90.8365" x2="133.3535" y2="-90.8365" gradientTransform="matrix(0 -1 1 0 124.2234 133.5598)">
				<stop  offset="0" style="stop-color:#EC1C24"/>
				<stop  offset="0.0521" style="stop-color:#EF3E22"/>
				<stop  offset="0.111" style="stop-color:#F15C21"/>
				<stop  offset="0.1731" style="stop-color:#F37420"/>
				<stop  offset="0.2388" style="stop-color:#F5851F"/>
				<stop  offset="0.3106" style="stop-color:#F68F1E"/>
				<stop  offset="0.4" style="stop-color:#F6921E"/>
				<stop  offset="1" style="stop-color:#FFF100"/>
			</linearGradient>
			<path fill="url(#SVGID_1_)" d="M33.387,0.206c15.274,0,27.649,12.382,27.649,27.655c0,15.268-12.375,27.65-27.649,27.65
				S5.737,43.132,5.737,27.86C5.737,12.588,18.113,0.206,33.387,0.206z"/>
			<path fill="#231F20" d="M5.326,27.862C5.183,35.216,8.1,42.62,13.328,47.913c2.606,2.648,5.732,4.8,9.171,6.234
				c3.433,1.439,7.162,2.186,10.888,2.191c3.726-0.008,7.455-0.754,10.886-2.195c3.44-1.438,6.568-3.587,9.17-6.23
				c5.219-5.295,8.146-12.702,8.005-20.047c-0.052-3.684-0.822-7.334-2.271-10.689c-0.557-1.291-1.214-2.537-1.96-3.726
				C52.332,5.396,43.48,0,33.387,0C23.329,0,14.5,5.359,9.601,13.373c-0.764,1.212-1.441,2.484-2.003,3.804
				C6.144,20.53,5.372,24.187,5.326,27.862z M57.34,14.493c2.206,4.098,3.374,8.74,3.283,13.361
				c-0.052,3.576-0.8,7.117-2.212,10.371c-1.397,3.259-3.46,6.211-5.976,8.681c-5.025,4.961-12.014,7.827-19.049,7.776
				c-7.037,0.051-14.024-2.814-19.046-7.776c-2.516-2.472-4.579-5.424-5.979-8.683c-1.408-3.252-2.158-6.799-2.209-10.361
				c-0.091-4.673,1.096-9.357,3.344-13.481c4.714-8.329,13.655-13.965,23.89-13.965C43.669,0.416,52.644,6.102,57.34,14.493z"/>
		</g>
		<path d="M47.163,39.647c0,0,0.141-0.414,0.919-0.414l-0.552-1.008l0.713,0.751l-0.417-1.1l0.598,0.71c0,0-0.046-0.609,0.388-0.177
			v-0.645c0-0.451,1.098-0.272,1.098-0.272s-0.458-0.369,0.779-0.506c0,0,0.141-0.549,0.738-0.367c0,0,0.915-0.413,1.512-0.366
			c0,0-3.303-1.238-7.108,2.062c0,0,1.97-5.777-3.073-8.072c0,0,1.628,1.59,1.56,2.156l-0.229,0.46l0.547-0.146l-0.388,0.255
			l0.205,0.21l-0.503,0.735c0,0,0.412-0.137,0.781,0l-0.642,0.368c0,0,1.825,0.371,0.273,1.147c0,0,0.634,0.329,0.091,0.593
			c0,0,0.236,0.064,0.046,0.92l0.758,0.316l-0.71-0.07l0.668,0.436l-0.716-0.254c0,0,0.899,0.793-0.046,0.625
			c0,0,0.396,1.471-0.323,0.46c0,0-3.851-6.146-7.749-4.907c0,0,1.098-0.031,1.56,0.366l-0.416,0.14c0,0,0.538,0.279,0.729,0.402
			l0.224-0.396l-0.135,0.456l0.434-0.573l-0.326,0.612c0.152,0.106,0.284,0.213,0.317,0.276l0.55,0.048l-0.23,0.551
			c0,0,1.643-0.776,1.15,1.19c0,0,1.647-0.732,0.318,0.551c0,0,0.722-0.203,0.646,0.261l0.819-0.38l-0.896,0.84l1.011-0.427
			l-0.843,0.669c0,0,1.038,0.235,1.282,0.871c0,0-4.874,0.098-7.158,2.799c0,0,1.286-1.195,1.471,0l0.066-0.767l0.435,0.493
			l0.048-0.691l0.362,0.827c0,0-0.274-0.69,0.369-1.011c0,0,0.412,0.184,0.138,0.961c0,0,0.434-1.209,1.239-0.182
			c0,0,0.782-0.459,1.378-0.137l0.114-1.083c-0.069,0.321,0.162,1.054,0.162,1.054c-0.015-0.289,0.135-0.887,0.247-1.289
			c-0.087,0.559-0.019,1.362-0.019,1.362s1.099-0.595,1.009,0c0,0,0.184-0.32,0.913-0.32c0,0-4.552,5.28-5.839,11.711v-2.177
			l-1.547,2.322c-2.124-14.152-12.453-26.11-12.453-26.11c1.522,0,1.906,0.667,1.906,0.667c-0.194-1.24,2.091,0,2.091,0
			s0.135-1.651-0.034-2.809c0.236,0.835,0.542,2.059,0.513,2.655c0,0,0.475-1.524,0.329-2.192l0.242,2.249
			c1.235-0.666,2.853,0.288,2.853,0.288c1.665-2.131,2.57,0.379,2.57,0.379c-0.573-1.617,0.284-1.997,0.284-1.997
			c1.332,0.664,0.762,2.09,0.762,2.09l0.762-1.71l0.097,1.428l0.898-1.012l0.147,1.582c0.38-2.476,3.047,0,3.047,0
			c-4.74-5.605-14.853-5.809-14.853-5.809c0.499-1.322,2.667-1.807,2.667-1.807l-1.759-1.393l2.098,0.891l-1.862-1.746l1.706,0.784
			c-0.154-0.957,1.343-0.536,1.343-0.536c-2.768-2.666,0.664-1.143,0.664-1.143c-1.026-4.082,2.38-2.473,2.38-2.473l-0.477-1.143
			l1.144-0.097c0.065-0.134,0.334-0.352,0.655-0.577l-0.683-1.269l0.906,1.19l-0.286-0.95l0.465,0.822
			c0.406-0.253,1.508-0.836,1.508-0.836l-0.856-0.285c0.964-0.822,3.236-0.761,3.236-0.761C29.89,8.683,21.895,21.436,21.895,21.436
			c-1.487,2.098-0.667-0.95-0.667-0.95c-1.954,0.342-0.097-1.299-0.097-1.299l-1.476,0.523l1.38-0.902l-1.477,0.143l1.572-0.656
			c-0.39-1.774,0.097-1.902,0.097-1.902c-1.123-0.559,0.192-1.236,0.192-1.236c-3.222-1.61,0.567-2.381,0.567-2.381l-1.334-0.763
			c0.766-0.284,1.62,0,1.62,0l-1.046-1.523l0.428-0.439l-0.809-0.522l1.14,0.297l-0.475-0.951c-0.143-1.18,3.237-4.476,3.237-4.476
			c-10.472,4.76-6.377,16.752-6.377,16.752c-7.9-6.852-14.756-4.282-14.756-4.282c1.241-0.093,3.142,0.761,3.142,0.761
			c1.237-0.381,1.519,0.762,1.519,0.762c2.573,0.287,1.621,1.047,1.621,1.047s2.284-0.368,2.284,0.572v1.33
			c0.908-0.891,0.811,0.371,0.811,0.371l1.238-1.477l-0.859,2.283l1.475-1.557l-1.142,2.094c1.621,0,1.905,0.858,1.905,0.858
			C3.523,23.815,0,30.956,0,30.956c1.714-1.335,3.142-1.619,3.142-1.619c0.093-1.522,1.618-0.763,1.618-0.763
			c0.38-1.522,2.092-0.476,2.092-0.476c0.508-0.504,1.144-0.411,1.691-0.154l1.087-1.488L8.861,28.14
			c0.899-0.85,0.945,0.724,0.945,0.724c1.237-3.808,1.902,0,1.902,0c1.524-2.954,1.715-0.573,1.715-0.573l1.046-2.295l-0.81,2.568
			c1.092-0.903,1.092,0.392,1.092,0.392c2.479-2.188,3.24-1.903,3.24-1.903c-6.662,4.285-8.567,10.854-8.567,10.854
			c1.905-2.283,3.522-1.617,3.522-1.617c0-2.096,1.238-1.523,1.238-1.523s1.38-2.347,2.903-1.3l-1.051-2.57l1.381,2.151
			c0.077-0.236,0.152-0.444,0.222-0.623l-0.788-1.452l1.058,1.263c0.678-1.233,0.845,0.338,0.845,0.338
			c1.331-2.284,2.522-1.714,2.522-1.714c-1.143,0.762-1.478,4.668-1.478,4.668l1.812-1.524l-1.715,2.095l0.273,1.325l1.584-1.482
			l-1.418,1.961l0.228,1.146c1.333-0.761,0.57,1.71,0.57,1.71c1.617-1.33,1.235,3.237,1.235,3.237
			c4.098-6.091,1.524-11.71,1.524-11.71c6.676,6.366,10.12,16.971,11.167,20.67l-0.651-0.51l0.267,1.623l-1.076-3.105l0.405,3.236
			l-1.083-1.617l0.405,1.891L31.3,53.122l1.221,1.623c-5.133,0.133-11.485,1.992-11.485,1.992h31.742c0,0-6.079-1.859-12.429-2.127
			l0.812-2.027L39.674,54.2l0.408-2.697l-1.623,2.97l0.406-2.297L37.774,53.7c0.476-1.709,2.132-6.904,5.397-10.016
			c0,0-1.24,2.704,0.735,5.639c0,0-0.185-2.2,0.594-1.557c0,0-0.37-1.193,0.274-0.826l0.113-0.552l-0.684-0.944l0.762,0.712
			l0.131-0.637l-0.829-1.012l0.876,0.735c0,0-0.162-1.879-0.71-2.247c0,0,0.572-0.274,1.214,0.824c0,0,0.08-0.754,0.404-0.16
			l0.514-0.611l-0.381,0.703c0.033,0.084,0.07,0.184,0.107,0.299l0.664-1.035l-0.504,1.235c0.733-0.501,1.397,0.626,1.397,0.626
			s0.598-0.273,0.598,0.73c0,0,0.778-0.316,1.694,0.781c0,0-0.916-3.162-4.125-5.227c0,0,0.364-0.14,1.556,0.918
			c0,0,0-0.628,0.531-0.189l-0.388-1.242l0.501,1.107c0,0,0.093-1.147,0.827,0.279c0,0,0.318-1.839,0.916,0
			c0,0,0.021-0.76,0.453-0.348l-0.37-0.816l0.521,0.719c0.268-0.124,0.574-0.168,0.814,0.077c0,0,0.828-0.505,1.01,0.229
			c0,0,0.737-0.364,0.781,0.366c0,0,0.685,0.14,1.512,0.781C54.682,43.042,52.99,39.603,47.163,39.647z"/>
	</g>
</g>
</svg>
