<?xml version="1.0" encoding="utf-8"?>
<!-- Generator: Adobe Illustrator 26.0.2, SVG Export Plug-In . SVG Version: 6.00 Build 0)  -->
<svg version="1.1" id="Layer_1" xmlns="http://www.w3.org/2000/svg" xmlns:xlink="http://www.w3.org/1999/xlink" x="0px" y="0px"
	 viewBox="0 0 144 56.737" enable-background="new 0 0 144 56.737" xml:space="preserve">
<g>
	<g>
		<g>
			<path fill="#231F20" d="M69.906,37.54c-2.654-2.739-3.982-5.938-3.982-9.6c0-3.66,1.347-6.832,4.032-9.51
				c2.691-2.677,5.918-4.018,9.683-4.018c3.772,0,6.992,1.334,9.652,4c2.668,2.666,4.001,5.845,4.001,9.527
				c0,3.684-1.322,6.891-3.964,9.613c-2.641,2.729-5.8,4.09-9.476,4.09h-0.529C75.697,41.644,72.56,40.273,69.906,37.54z
				 M92.136,28.011c0-3.449-1.227-6.412-3.668-8.879c-2.444-2.466-5.391-3.701-8.848-3.701c-3.446,0-6.398,1.235-8.853,3.701
				c-2.456,2.467-3.685,5.43-3.685,8.879c0,3.451,1.229,6.417,3.685,8.896c2.455,2.479,5.399,3.718,8.834,3.718
				c3.446,0,6.394-1.238,8.848-3.718C90.905,34.428,92.136,31.462,92.136,28.011z"/>
			<path fill="#231F20" d="M112.728,25.397v15.788h-1.118v-3.927c-0.656,1.33-1.638,2.385-2.949,3.156
				c-1.309,0.771-2.711,1.16-4.207,1.16c-2.295,0-4.264-0.814-5.899-2.441c-1.64-1.624-2.457-3.57-2.457-5.84
				c0-2.271,0.817-4.221,2.457-5.845c1.636-1.626,3.604-2.438,5.899-2.438c1.496,0,2.926,0.399,4.296,1.191
				c1.369,0.797,2.319,1.85,2.86,3.159v-3.964H112.728z M97.219,33.327c0,1.967,0.722,3.666,2.161,5.105
				c1.438,1.44,3.149,2.159,5.125,2.159c1.976,0,3.667-0.72,5.07-2.159c1.402-1.439,2.104-3.146,2.104-5.123
				c0-1.976-0.708-3.691-2.119-5.141c-1.417-1.449-3.105-2.175-5.071-2.175c-1.963,0-3.671,0.731-5.108,2.191
				C97.94,29.647,97.219,31.362,97.219,33.327z"/>
			<path fill="#231F20" d="M120.382,25.958c-0.609,0-1.148,0.199-1.617,0.597c-0.462,0.397-0.696,0.889-0.696,1.474
				c0,0.585,0.261,1.123,0.788,1.614c0.524,0.491,1.154,0.944,1.896,1.351c0.734,0.411,1.477,0.848,2.225,1.316
				c0.748,0.466,1.387,1.065,1.914,1.792c0.529,0.724,0.789,1.557,0.789,2.489c0,1.381-0.521,2.557-1.561,3.526
				c-1.045,0.972-2.297,1.458-3.772,1.458c-0.939,0-1.807-0.208-2.616-0.616c-0.807-0.409-1.397-0.953-1.769-1.63v-1.686
				c0.887,1.967,2.314,2.948,4.282,2.948c1.213,0,2.237-0.374,3.066-1.124c0.831-0.748,1.248-1.584,1.248-2.508
				c0-0.924-0.264-1.702-0.788-2.335c-0.53-0.63-1.164-1.167-1.913-1.614c-0.752-0.445-1.491-0.883-2.233-1.316
				c-0.731-0.433-1.365-0.961-1.893-1.577c-0.522-0.622-0.789-1.348-0.789-2.177c0-0.83,0.336-1.531,1-2.103
				c0.665-0.574,1.523-0.86,2.578-0.86c1.055,0,1.953,0.409,2.702,1.226v1.439C122.474,26.521,121.53,25.958,120.382,25.958z"/>
			<path fill="#231F20" d="M130.032,21.571c-0.679,0-1.018-0.317-1.018-0.947c0-0.632,0.34-0.949,1.018-0.949
				c0.677,0,1.017,0.317,1.017,0.949C131.049,21.254,130.709,21.571,130.032,21.571z M130.593,25.433v15.753h-1.124V25.433H130.593z
				"/>
			<path fill="#231F20" d="M138.699,25.958c-0.608,0-1.149,0.199-1.613,0.597c-0.469,0.397-0.702,0.889-0.702,1.474
				c0,0.585,0.261,1.123,0.793,1.614c0.521,0.491,1.154,0.944,1.887,1.351c0.742,0.411,1.482,0.848,2.232,1.316
				c0.749,0.466,1.387,1.065,1.909,1.792c0.53,0.724,0.792,1.557,0.792,2.489c0,1.381-0.52,2.557-1.562,3.526
				c-1.04,0.972-2.296,1.458-3.773,1.458c-0.935,0-1.803-0.208-2.611-0.616c-0.808-0.409-1.398-0.953-1.77-1.63v-1.686
				c0.886,1.967,2.314,2.948,4.276,2.948c1.221,0,2.242-0.374,3.072-1.124c0.829-0.748,1.244-1.584,1.244-2.508
				c0-0.924-0.264-1.702-0.788-2.335c-0.526-0.63-1.163-1.167-1.913-1.614c-0.747-0.445-1.494-0.883-2.226-1.316
				c-0.739-0.433-1.372-0.961-1.896-1.577c-0.526-0.622-0.787-1.348-0.787-2.177c0-0.83,0.331-1.531,0.998-2.103
				c0.665-0.574,1.525-0.86,2.579-0.86c1.054,0,1.955,0.409,2.704,1.226v1.439C140.795,26.521,139.845,25.958,138.699,25.958z"/>
		</g>
		<g>
			<path fill="#231F20" d="M78.017,54.149h-0.145c-0.901,0-1.738-0.234-2.518-0.707c-0.779-0.473-1.396-1.1-1.845-1.884
				c-0.452-0.784-0.675-1.616-0.675-2.5c0-1.393,0.5-2.586,1.509-3.586c1.006-1.006,2.207-1.506,3.607-1.506
				c0.938,0,1.824,0.245,2.662,0.734v0.486c-0.82-0.559-1.706-0.841-2.662-0.841c-1.284,0-2.39,0.464-3.307,1.386
				c-0.919,0.922-1.379,2.027-1.379,3.32c0,1.289,0.46,2.4,1.379,3.33c0.917,0.926,2.023,1.389,3.307,1.389
				c0.956,0,1.842-0.281,2.662-0.84v0.486C79.822,53.907,78.953,54.149,78.017,54.149z"/>
			<path fill="#231F20" d="M84.439,53.756v0.367c-0.621,0-1.152-0.205-1.584-0.621c-0.443-0.416-0.662-0.947-0.662-1.596v-7.743
				h0.42v7.743c0,0.535,0.178,0.977,0.533,1.324C83.503,53.583,83.934,53.756,84.439,53.756z"/>
			<path fill="#231F20" d="M87.921,54.163H87.8c-0.834,0-1.555-0.312-2.172-0.936c-0.619-0.627-0.926-1.354-0.926-2.185
				c0-0.836,0.305-1.551,0.919-2.16c0.613-0.609,1.366-0.912,2.267-0.912c0.903,0,1.678,0.359,2.325,1.076l-4.119,4.07
				c0.569,0.453,1.113,0.682,1.638,0.682c0.524,0,0.995-0.119,1.413-0.361c0.416-0.24,0.761-0.562,1.029-0.965v0.672
				C89.554,53.823,88.798,54.163,87.921,54.163z M87.78,48.338c-0.697,0-1.312,0.269-1.852,0.806
				c-0.538,0.539-0.808,1.154-0.808,1.859c0,0.697,0.233,1.31,0.696,1.836l3.821-3.793C89.094,48.573,88.472,48.338,87.78,48.338z"
				/>
			<path fill="#231F20" d="M97.351,48.101v5.906H96.93V52.54c-0.245,0.494-0.612,0.891-1.102,1.178
				c-0.488,0.289-1.015,0.432-1.575,0.432c-0.854,0-1.591-0.301-2.203-0.908c-0.612-0.611-0.919-1.34-0.919-2.187
				c0-0.85,0.307-1.578,0.919-2.186c0.612-0.608,1.349-0.913,2.203-0.913c0.561,0,1.097,0.15,1.608,0.446
				c0.512,0.299,0.866,0.692,1.068,1.181v-1.481H97.351z M91.551,51.067c0,0.736,0.273,1.372,0.807,1.912
				c0.536,0.535,1.177,0.805,1.919,0.805c0.733,0,1.372-0.27,1.893-0.805c0.523-0.539,0.786-1.18,0.786-1.917
				c0-0.74-0.265-1.383-0.793-1.922c-0.528-0.545-1.16-0.817-1.895-0.817c-0.733,0-1.374,0.273-1.91,0.82
				C91.824,49.69,91.551,50.331,91.551,51.067z"/>
			<path fill="#231F20" d="M99.347,54.006h-0.416v-5.906h0.416v1.195c0.446-0.894,1.207-1.341,2.286-1.341
				c0.735,0,1.349,0.254,1.851,0.761c0.497,0.509,0.747,1.126,0.747,1.852v3.439h-0.418v-3.439c0-0.604-0.213-1.129-0.64-1.574
				c-0.427-0.446-0.937-0.67-1.54-0.67c-0.605,0-1.136,0.224-1.599,0.67c-0.457,0.445-0.688,0.971-0.688,1.574V54.006z"/>
			<path fill="#231F20" d="M106.187,46.669c-0.255,0-0.378-0.116-0.378-0.354c0-0.236,0.123-0.354,0.378-0.354
				c0.253,0,0.379,0.117,0.379,0.354C106.566,46.553,106.44,46.669,106.187,46.669z M106.396,48.11v5.896h-0.419V48.11H106.396z"/>
			<path fill="#231F20" d="M108.561,54.006h-0.419v-5.906h0.419v1.195c0.449-0.894,1.209-1.341,2.285-1.341
				c0.735,0,1.35,0.254,1.849,0.761c0.499,0.509,0.748,1.126,0.748,1.852v3.439h-0.422v-3.439c0-0.604-0.211-1.129-0.634-1.574
				c-0.427-0.446-0.939-0.67-1.541-0.67c-0.605,0-1.134,0.224-1.596,0.67c-0.458,0.445-0.69,0.971-0.69,1.574V54.006z"/>
			<path fill="#231F20" d="M120.504,48.101h0.422v5.355c0,1.016-0.275,1.816-0.841,2.402c-0.562,0.588-1.295,0.879-2.204,0.879
				c-0.498,0-0.983-0.115-1.454-0.34c-0.479-0.23-0.844-0.525-1.108-0.893v-0.603c0.228,0.418,0.586,0.769,1.077,1.049
				c0.481,0.279,0.98,0.422,1.485,0.422c0.771,0,1.399-0.264,1.889-0.781c0.496-0.521,0.734-1.234,0.734-2.135v-0.879
				c-0.233,0.48-0.606,0.865-1.117,1.154c-0.505,0.287-1.031,0.432-1.572,0.432c-0.857,0-1.593-0.303-2.203-0.912
				c-0.617-0.607-0.922-1.336-0.922-2.183c0-0.851,0.305-1.576,0.922-2.186c0.61-0.609,1.346-0.912,2.203-0.912
				c0.57,0,1.101,0.141,1.594,0.428c0.495,0.283,0.862,0.674,1.096,1.174V48.101z M115.109,51.067c0,0.742,0.27,1.382,0.809,1.921
				c0.537,0.539,1.179,0.809,1.92,0.809c0.735,0,1.366-0.27,1.892-0.809c0.528-0.539,0.787-1.18,0.787-1.921
				c0-0.746-0.259-1.385-0.787-1.924c-0.526-0.537-1.157-0.806-1.892-0.806c-0.741,0-1.383,0.269-1.92,0.806
				C115.379,49.683,115.109,50.321,115.109,51.067z"/>
			<path fill="#231F20" d="M132.081,54.149h-0.142c-0.903,0-1.742-0.234-2.521-0.707c-0.779-0.473-1.391-1.1-1.845-1.884
				c-0.452-0.784-0.675-1.616-0.675-2.5c0-1.393,0.505-2.586,1.509-3.586c1.004-1.006,2.209-1.506,3.61-1.506
				c0.935,0,1.822,0.245,2.661,0.734v0.486c-0.82-0.559-1.711-0.841-2.661-0.841c-1.286,0-2.392,0.464-3.311,1.386
				c-0.916,0.922-1.374,2.027-1.374,3.32c0,1.289,0.458,2.4,1.374,3.33c0.92,0.926,2.025,1.389,3.311,1.389
				c0.95,0,1.841-0.281,2.661-0.84v0.486C133.885,53.907,133.019,54.149,132.081,54.149z"/>
			<path fill="#231F20" d="M136.833,53.213c-0.602-0.627-0.904-1.356-0.904-2.185c0-0.834,0.307-1.553,0.919-2.16
				c0.609-0.608,1.347-0.913,2.21-0.913c0.861,0,1.599,0.305,2.205,0.913c0.608,0.607,0.912,1.33,0.912,2.166
				c0,0.835-0.297,1.564-0.892,2.187c-0.592,0.619-1.316,0.928-2.166,0.928h-0.119C138.158,54.149,137.436,53.836,136.833,53.213z
				 M141.755,51.062c0-0.74-0.267-1.383-0.792-1.922c-0.531-0.545-1.161-0.817-1.9-0.817c-0.733,0-1.372,0.273-1.906,0.82
				c-0.538,0.547-0.809,1.188-0.809,1.924c0,0.736,0.27,1.372,0.809,1.912c0.534,0.535,1.175,0.805,1.914,0.805
				c0.74,0,1.373-0.27,1.898-0.805C141.492,52.44,141.755,51.799,141.755,51.062z"/>
			<path fill="#231F20" d="M143.548,54.1c-0.305,0-0.454-0.137-0.454-0.408c0-0.271,0.149-0.408,0.454-0.408
				c0.301,0,0.452,0.137,0.452,0.408C144,53.963,143.849,54.1,143.548,54.1z"/>
		</g>
	</g>
	<g>
		<g>
			
				<linearGradient id="SVGID_1_" gradientUnits="userSpaceOnUse" x1="78.0488" y1="-90.8365" x2="133.3535" y2="-90.8365" gradientTransform="matrix(0 -1 1 0 124.2234 133.5598)">
				<stop  offset="0" style="stop-color:#EC1C24"/>
				<stop  offset="0.0521" style="stop-color:#EF3E22"/>
				<stop  offset="0.111" style="stop-color:#F15C21"/>
				<stop  offset="0.1731" style="stop-color:#F37420"/>
				<stop  offset="0.2388" style="stop-color:#F5851F"/>
				<stop  offset="0.3106" style="stop-color:#F68F1E"/>
				<stop  offset="0.4" style="stop-color:#F6921E"/>
				<stop  offset="1" style="stop-color:#FFF100"/>
			</linearGradient>
			<path fill="url(#SVGID_1_)" d="M33.387,0.206c15.274,0,27.649,12.382,27.649,27.655c0,15.268-12.375,27.65-27.649,27.65
				S5.737,43.132,5.737,27.86C5.737,12.588,18.113,0.206,33.387,0.206z"/>
			<path fill="#231F20" d="M5.326,27.862C5.183,35.216,8.1,42.62,13.328,47.913c2.606,2.648,5.732,4.8,9.171,6.234
				c3.433,1.439,7.162,2.186,10.888,2.191c3.726-0.008,7.455-0.754,10.886-2.195c3.44-1.438,6.568-3.587,9.17-6.23
				c5.219-5.295,8.146-12.702,8.005-20.047c-0.052-3.684-0.822-7.334-2.271-10.689c-0.557-1.291-1.214-2.537-1.96-3.726
				C52.332,5.396,43.48,0,33.387,0C23.329,0,14.5,5.359,9.601,13.373c-0.764,1.212-1.441,2.484-2.003,3.804
				C6.144,20.53,5.372,24.187,5.326,27.862z M57.34,14.493c2.206,4.098,3.374,8.74,3.283,13.361
				c-0.052,3.576-0.8,7.117-2.212,10.371c-1.397,3.259-3.46,6.211-5.976,8.681c-5.025,4.961-12.014,7.827-19.049,7.776
				c-7.037,0.051-14.024-2.814-19.046-7.776c-2.516-2.472-4.579-5.424-5.979-8.683c-1.408-3.252-2.158-6.799-2.209-10.361
				c-0.091-4.673,1.096-9.357,3.344-13.481c4.714-8.329,13.655-13.965,23.89-13.965C43.669,0.416,52.644,6.102,57.34,14.493z"/>
		</g>
		<path d="M47.163,39.647c0,0,0.141-0.414,0.919-0.414l-0.552-1.008l0.713,0.751l-0.417-1.1l0.598,0.71c0,0-0.046-0.609,0.388-0.177
			v-0.645c0-0.451,1.098-0.272,1.098-0.272s-0.458-0.369,0.779-0.506c0,0,0.141-0.549,0.738-0.367c0,0,0.915-0.413,1.512-0.366
			c0,0-3.303-1.238-7.108,2.062c0,0,1.97-5.777-3.073-8.072c0,0,1.628,1.59,1.56,2.156l-0.229,0.46l0.547-0.146l-0.388,0.255
			l0.205,0.21l-0.503,0.735c0,0,0.412-0.137,0.781,0l-0.642,0.368c0,0,1.825,0.371,0.273,1.147c0,0,0.634,0.329,0.091,0.593
			c0,0,0.236,0.064,0.046,0.92l0.758,0.316l-0.71-0.07l0.668,0.436l-0.716-0.254c0,0,0.899,0.793-0.046,0.625
			c0,0,0.396,1.471-0.323,0.46c0,0-3.851-6.146-7.749-4.907c0,0,1.098-0.031,1.56,0.366l-0.416,0.14c0,0,0.538,0.279,0.729,0.402
			l0.224-0.396l-0.135,0.456l0.434-0.573l-0.326,0.612c0.152,0.106,0.284,0.213,0.317,0.276l0.55,0.048l-0.23,0.551
			c0,0,1.643-0.776,1.15,1.19c0,0,1.647-0.732,0.318,0.551c0,0,0.722-0.203,0.646,0.261l0.819-0.38l-0.896,0.84l1.011-0.427
			l-0.843,0.669c0,0,1.038,0.235,1.282,0.871c0,0-4.874,0.098-7.158,2.799c0,0,1.286-1.195,1.471,0l0.066-0.767l0.435,0.493
			l0.048-0.691l0.362,0.827c0,0-0.274-0.69,0.369-1.011c0,0,0.412,0.184,0.138,0.961c0,0,0.434-1.209,1.239-0.182
			c0,0,0.782-0.459,1.378-0.137l0.114-1.083c-0.069,0.321,0.162,1.054,0.162,1.054c-0.015-0.289,0.135-0.887,0.247-1.289
			c-0.087,0.559-0.019,1.362-0.019,1.362s1.099-0.595,1.009,0c0,0,0.184-0.32,0.913-0.32c0,0-4.552,5.28-5.839,11.711v-2.177
			l-1.547,2.322c-2.124-14.152-12.453-26.11-12.453-26.11c1.522,0,1.906,0.667,1.906,0.667c-0.194-1.24,2.091,0,2.091,0
			s0.135-1.651-0.034-2.809c0.236,0.835,0.542,2.059,0.513,2.655c0,0,0.475-1.524,0.329-2.192l0.242,2.249
			c1.235-0.666,2.853,0.288,2.853,0.288c1.665-2.131,2.57,0.379,2.57,0.379c-0.573-1.617,0.284-1.997,0.284-1.997
			c1.332,0.664,0.762,2.09,0.762,2.09l0.762-1.71l0.097,1.428l0.898-1.012l0.147,1.582c0.38-2.476,3.047,0,3.047,0
			c-4.74-5.605-14.853-5.809-14.853-5.809c0.499-1.322,2.667-1.807,2.667-1.807l-1.759-1.393l2.098,0.891l-1.862-1.746l1.706,0.784
			c-0.154-0.957,1.343-0.536,1.343-0.536c-2.768-2.666,0.664-1.143,0.664-1.143c-1.026-4.082,2.38-2.473,2.38-2.473l-0.477-1.143
			l1.144-0.097c0.065-0.134,0.334-0.352,0.655-0.577l-0.683-1.269l0.906,1.19l-0.286-0.95l0.465,0.822
			c0.406-0.253,1.508-0.836,1.508-0.836l-0.856-0.285c0.964-0.822,3.236-0.761,3.236-0.761C29.89,8.683,21.895,21.436,21.895,21.436
			c-1.487,2.098-0.667-0.95-0.667-0.95c-1.954,0.342-0.097-1.299-0.097-1.299l-1.476,0.523l1.38-0.902l-1.477,0.143l1.572-0.656
			c-0.39-1.774,0.097-1.902,0.097-1.902c-1.123-0.559,0.192-1.236,0.192-1.236c-3.222-1.61,0.567-2.381,0.567-2.381l-1.334-0.763
			c0.766-0.284,1.62,0,1.62,0l-1.046-1.523l0.428-0.439l-0.809-0.522l1.14,0.297l-0.475-0.951c-0.143-1.18,3.237-4.476,3.237-4.476
			c-10.472,4.76-6.377,16.752-6.377,16.752c-7.9-6.852-14.756-4.282-14.756-4.282c1.241-0.093,3.142,0.761,3.142,0.761
			c1.237-0.381,1.519,0.762,1.519,0.762c2.573,0.287,1.621,1.047,1.621,1.047s2.284-0.368,2.284,0.572v1.33
			c0.908-0.891,0.811,0.371,0.811,0.371l1.238-1.477l-0.859,2.283l1.475-1.557l-1.142,2.094c1.621,0,1.905,0.858,1.905,0.858
			C3.523,23.815,0,30.956,0,30.956c1.714-1.335,3.142-1.619,3.142-1.619c0.093-1.522,1.618-0.763,1.618-0.763
			c0.38-1.522,2.092-0.476,2.092-0.476c0.508-0.504,1.144-0.411,1.691-0.154l1.087-1.488L8.861,28.14
			c0.899-0.85,0.945,0.724,0.945,0.724c1.237-3.808,1.902,0,1.902,0c1.524-2.954,1.715-0.573,1.715-0.573l1.046-2.295l-0.81,2.568
			c1.092-0.903,1.092,0.392,1.092,0.392c2.479-2.188,3.24-1.903,3.24-1.903c-6.662,4.285-8.567,10.854-8.567,10.854
			c1.905-2.283,3.522-1.617,3.522-1.617c0-2.096,1.238-1.523,1.238-1.523s1.38-2.347,2.903-1.3l-1.051-2.57l1.381,2.151
			c0.077-0.236,0.152-0.444,0.222-0.623l-0.788-1.452l1.058,1.263c0.678-1.233,0.845,0.338,0.845,0.338
			c1.331-2.284,2.522-1.714,2.522-1.714c-1.143,0.762-1.478,4.668-1.478,4.668l1.812-1.524l-1.715,2.095l0.273,1.325l1.584-1.482
			l-1.418,1.961l0.228,1.146c1.333-0.761,0.57,1.71,0.57,1.71c1.617-1.33,1.235,3.237,1.235,3.237
			c4.098-6.091,1.524-11.71,1.524-11.71c6.676,6.366,10.12,16.971,11.167,20.67l-0.651-0.51l0.267,1.623l-1.076-3.105l0.405,3.236
			l-1.083-1.617l0.405,1.891L31.3,53.122l1.221,1.623c-5.133,0.133-11.485,1.992-11.485,1.992h31.742c0,0-6.079-1.859-12.429-2.127
			l0.812-2.027L39.674,54.2l0.408-2.697l-1.623,2.97l0.406-2.297L37.774,53.7c0.476-1.709,2.132-6.904,5.397-10.016
			c0,0-1.24,2.704,0.735,5.639c0,0-0.185-2.2,0.594-1.557c0,0-0.37-1.193,0.274-0.826l0.113-0.552l-0.684-0.944l0.762,0.712
			l0.131-0.637l-0.829-1.012l0.876,0.735c0,0-0.162-1.879-0.71-2.247c0,0,0.572-0.274,1.214,0.824c0,0,0.08-0.754,0.404-0.16
			l0.514-0.611l-0.381,0.703c0.033,0.084,0.07,0.184,0.107,0.299l0.664-1.035l-0.504,1.235c0.733-0.501,1.397,0.626,1.397,0.626
			s0.598-0.273,0.598,0.73c0,0,0.778-0.316,1.694,0.781c0,0-0.916-3.162-4.125-5.227c0,0,0.364-0.14,1.556,0.918
			c0,0,0-0.628,0.531-0.189l-0.388-1.242l0.501,1.107c0,0,0.093-1.147,0.827,0.279c0,0,0.318-1.839,0.916,0
			c0,0,0.021-0.76,0.453-0.348l-0.37-0.816l0.521,0.719c0.268-0.124,0.574-0.168,0.814,0.077c0,0,0.828-0.505,1.01,0.229
			c0,0,0.737-0.364,0.781,0.366c0,0,0.685,0.14,1.512,0.781C54.682,43.042,52.99,39.603,47.163,39.647z"/>
	</g>
</g>
</svg>
